<svg xmlns="http://www.w3.org/2000/svg" viewBox="0 0 200 200" width="200" height="200" role="img" aria-label="Panda">
  <g id="arthur-panda">
    <circle cx="56" cy="54" r="24" fill="#1F1F26"></circle>
    <circle cx="144" cy="54" r="24" fill="#1F1F26"></circle>
    <circle cx="100" cy="104" r="64" fill="#FFFFFF"></circle>
    <ellipse cx="74" cy="98" rx="20" ry="25" fill="#1F1F26" transform="rotate(-16 74 98)"></ellipse>
    <ellipse cx="126" cy="98" rx="20" ry="25" fill="#1F1F26" transform="rotate(16 126 98)"></ellipse>
    <circle cx="76" cy="97" r="9.5" fill="#FFFFFF"></circle>
    <circle cx="124" cy="97" r="9.5" fill="#FFFFFF"></circle>
    <circle cx="76" cy="99" r="5.2" fill="#1F1F26"></circle>
    <circle cx="124" cy="99" r="5.2" fill="#1F1F26"></circle>
    <path d="M100 122c-7 0-11 4-11 8s5 7 11 7 11-3 11-7-4-8-11-8z" fill="#1F1F26"></path>
    <path d="M100 137c-4 6-11 6-15 1M100 137c4 6 11 6 15 1" stroke="#1F1F26" stroke-width="3.5" fill="none" stroke-linecap="round"></path>
  </g>
</svg>