<svg xmlns="http://www.w3.org/2000/svg" viewBox="0 0 200 200" width="200" height="200" role="img" aria-label="Penguin">
  <g id="maryn-penguin">
    <ellipse cx="42" cy="118" rx="17" ry="34" fill="#1F1F26" transform="rotate(14 42 118)"></ellipse>
    <ellipse cx="158" cy="118" rx="17" ry="34" fill="#1F1F26" transform="rotate(-14 158 118)"></ellipse>
    <path d="M100 26c-38 0-62 28-62 66 0 44 26 76 62 76s62-32 62-76c0-38-24-66-62-66z" fill="#1F1F26"></path>
    <path d="M100 58c-25 0-40 20-40 48s16 54 40 54 40-26 40-54-15-48-40-48z" fill="#FFFFFF"></path>
    <circle cx="84" cy="92" r="7.5" fill="#1F1F26"></circle>
    <circle cx="116" cy="92" r="7.5" fill="#1F1F26"></circle>
    <circle cx="86.5" cy="89.5" r="2.4" fill="#FFFFFF"></circle>
    <circle cx="118.5" cy="89.5" r="2.4" fill="#FFFFFF"></circle>
    <ellipse cx="68" cy="106" rx="9" ry="6" fill="#F2A9A4"></ellipse>
    <ellipse cx="132" cy="106" rx="9" ry="6" fill="#F2A9A4"></ellipse>
    <path d="M100 102l-11 9a14 14 0 0 0 22 0z" fill="#E08A5A"></path>
  </g>
</svg>